<?xml version="1.0" encoding="UTF-8" standalone="no"?><svg xmlns:svg="http://www.w3.org/2000/svg" xmlns="http://www.w3.org/2000/svg" xmlns:xlink="http://www.w3.org/1999/xlink" version="1.0" width="64px" height="64px" viewBox="0 0 128 128" xml:space="preserve"><g><path d="M64 .37a2.04 2.04 0 0 1 2.04 2.04v41.1a2.04 2.04 0 0 1-4.08 0V2.4A2.04 2.04 0 0 1 64 .38z" fill="#d01212"/><path d="M64 .37a2.04 2.04 0 0 1 2.04 2.04v41.1a2.04 2.04 0 0 1-4.08 0V2.4A2.04 2.04 0 0 1 64 .38z" fill="#f1b7b7" transform="rotate(18 64 64)"/><path d="M64 .37a2.04 2.04 0 0 1 2.04 2.04v41.1a2.04 2.04 0 0 1-4.08 0V2.4A2.04 2.04 0 0 1 64 .38z" fill="#f1b7b7" transform="rotate(36 64 64)"/><path d="M64 .37a2.04 2.04 0 0 1 2.04 2.04v41.1a2.04 2.04 0 0 1-4.08 0V2.4A2.04 2.04 0 0 1 64 .38z" fill="#f1b7b7" transform="rotate(54 64 64)"/><path d="M64 .37a2.04 2.04 0 0 1 2.04 2.04v41.1a2.04 2.04 0 0 1-4.08 0V2.4A2.04 2.04 0 0 1 64 .38z" fill="#f1b7b7" transform="rotate(72 64 64)"/><path d="M64 .37a2.04 2.04 0 0 1 2.04 2.04v41.1a2.04 2.04 0 0 1-4.08 0V2.4A2.04 2.04 0 0 1 64 .38z" fill="#f1b7b7" transform="rotate(90 64 64)"/><path d="M64 .37a2.04 2.04 0 0 1 2.04 2.04v41.1a2.04 2.04 0 0 1-4.08 0V2.4A2.04 2.04 0 0 1 64 .38z" fill="#f1b7b7" transform="rotate(108 64 64)"/><path d="M64 .37a2.04 2.04 0 0 1 2.04 2.04v41.1a2.04 2.04 0 0 1-4.08 0V2.4A2.04 2.04 0 0 1 64 .38z" fill="#efacac" transform="rotate(126 64 64)"/><path d="M64 .37a2.04 2.04 0 0 1 2.04 2.04v41.1a2.04 2.04 0 0 1-4.08 0V2.4A2.04 2.04 0 0 1 64 .38z" fill="#eca0a0" transform="rotate(144 64 64)"/><path d="M64 .37a2.04 2.04 0 0 1 2.04 2.04v41.1a2.04 2.04 0 0 1-4.08 0V2.4A2.04 2.04 0 0 1 64 .38z" fill="#ea9494" transform="rotate(162 64 64)"/><path d="M64 .37a2.04 2.04 0 0 1 2.04 2.04v41.1a2.04 2.04 0 0 1-4.08 0V2.4A2.04 2.04 0 0 1 64 .38z" fill="#e78888" transform="rotate(180 64 64)"/><path d="M64 .37a2.04 2.04 0 0 1 2.04 2.04v41.1a2.04 2.04 0 0 1-4.08 0V2.4A2.04 2.04 0 0 1 64 .38z" fill="#e57d7d" transform="rotate(198 64 64)"/><path d="M64 .37a2.04 2.04 0 0 1 2.04 2.04v41.1a2.04 2.04 0 0 1-4.08 0V2.4A2.04 2.04 0 0 1 64 .38z" fill="#e37171" transform="rotate(216 64 64)"/><path d="M64 .37a2.04 2.04 0 0 1 2.04 2.04v41.1a2.04 2.04 0 0 1-4.08 0V2.4A2.04 2.04 0 0 1 64 .38z" fill="#e06565" transform="rotate(234 64 64)"/><path d="M64 .37a2.04 2.04 0 0 1 2.04 2.04v41.1a2.04 2.04 0 0 1-4.08 0V2.4A2.04 2.04 0 0 1 64 .38z" fill="#de5959" transform="rotate(252 64 64)"/><path d="M64 .37a2.04 2.04 0 0 1 2.04 2.04v41.1a2.04 2.04 0 0 1-4.08 0V2.4A2.04 2.04 0 0 1 64 .38z" fill="#dc4d4d" transform="rotate(270 64 64)"/><path d="M64 .37a2.04 2.04 0 0 1 2.04 2.04v41.1a2.04 2.04 0 0 1-4.08 0V2.4A2.04 2.04 0 0 1 64 .38z" fill="#d94141" transform="rotate(288 64 64)"/><path d="M64 .37a2.04 2.04 0 0 1 2.04 2.04v41.1a2.04 2.04 0 0 1-4.08 0V2.4A2.04 2.04 0 0 1 64 .38z" fill="#d73535" transform="rotate(306 64 64)"/><path d="M64 .37a2.04 2.04 0 0 1 2.04 2.04v41.1a2.04 2.04 0 0 1-4.08 0V2.4A2.04 2.04 0 0 1 64 .38z" fill="#d52929" transform="rotate(324 64 64)"/><path d="M64 .37a2.04 2.04 0 0 1 2.04 2.04v41.1a2.04 2.04 0 0 1-4.08 0V2.4A2.04 2.04 0 0 1 64 .38z" fill="#d21e1e" transform="rotate(342 64 64)"/><animateTransform attributeName="transform" type="rotate" values="0 64 64;18 64 64;36 64 64;54 64 64;72 64 64;90 64 64;108 64 64;126 64 64;144 64 64;162 64 64;180 64 64;198 64 64;216 64 64;234 64 64;252 64 64;270 64 64;288 64 64;306 64 64;324 64 64;342 64 64" calcMode="discrete" dur="1800ms" repeatCount="indefinite"></animateTransform></g></svg>